<svg width="24" height="24" viewBox="0 0 24 24" fill="none" xmlns="http://www.w3.org/2000/svg">
<path d="M20.5127 9.7219L13.0127 2.90627C12.7362 2.6533 12.375 2.513 12.0002 2.513C11.6254 2.513 11.2642 2.6533 10.9877 2.90627L3.4877 9.7219C3.33414 9.86238 3.2115 10.0333 3.12757 10.2237C3.04364 10.4142 3.00027 10.62 3.0002 10.8281V19.4625C2.9941 19.8407 3.12761 20.2078 3.3752 20.4938C3.51572 20.6536 3.68882 20.7814 3.88287 20.8687C4.07692 20.9561 4.28741 21.0008 4.5002 21H9.0002C9.19911 21 9.38988 20.921 9.53053 20.7804C9.67118 20.6397 9.7502 20.4489 9.7502 20.25V15.75C9.7502 15.5511 9.82922 15.3603 9.96987 15.2197C10.1105 15.079 10.3013 15 10.5002 15H13.5002C13.6991 15 13.8899 15.079 14.0305 15.2197C14.1712 15.3603 14.2502 15.5511 14.2502 15.75V20.25C14.2502 20.4489 14.3292 20.6397 14.4699 20.7804C14.6105 20.921 14.8013 21 15.0002 21H19.5002C19.749 21.0022 19.9942 20.9409 20.2127 20.8219C20.4504 20.6924 20.649 20.5014 20.7875 20.2688C20.9261 20.0363 20.9995 19.7707 21.0002 19.5V10.8281C21.0001 10.62 20.9568 10.4142 20.8728 10.2237C20.7889 10.0333 20.6663 9.86238 20.5127 9.7219Z" fill="#933E42"/>
</svg>
